<svg width="256" height="489" viewBox="0 0 256 489" fill="none" xmlns="http://www.w3.org/2000/svg">
<path d="M88.615 2.76454C100.866 9.86426 106.403 20.7722 110.162 34.2226C112.567 44.1377 113.618 54.3164 114.835 64.4325C115.785 72.3205 116.816 80.1834 118.034 88.0346C118.159 88.8448 118.285 89.6549 118.414 90.4896C119.023 94.4033 119.796 99.1936 120.277 102.225C120.758 105.256 122.052 120.605 122.052 126.087C127.436 126.449 132.756 125.968 138.302 126.34C138.657 123.737 139.012 121.135 139.377 118.454C143.852 85.7187 143.852 85.7187 145.891 73.3332C146.792 67.7743 147.497 62.2047 148.165 56.6129C150.552 36.893 153.486 18.012 169.841 4.88454C176.658 0.421202 183.577 -0.652694 191.592 0.507772C194.877 1.5016 197.473 2.93346 200.292 4.88454C201.031 5.3909 201.77 5.89727 202.531 6.41897C215.228 16.296 218.801 33.6686 220.939 48.9188C224.747 79.6862 219.963 113.264 210.968 142.817C209.679 147.136 209.679 147.136 210.08 151.506C212.354 154.271 215 156.55 217.693 158.892C219.205 160.264 220.715 161.639 222.222 163.017C222.948 163.676 223.675 164.336 224.423 165.015C243.267 182.324 254.64 209.041 255.978 234.49C256.571 265.492 245.147 293.605 223.848 316.005C216.95 322.953 209.289 328.892 200.993 334.065C199.036 335.237 199.036 335.237 198.117 337.519C199.289 337.728 199.289 337.728 200.483 337.942C205.682 339.078 210.55 341.104 215.518 342.99C216.383 343.292 217.248 343.594 218.139 343.905C230.712 348.508 245.13 356.485 253.582 367.062C254.677 371.782 254.264 373.492 251.951 377.662C244.212 384.864 234.278 387.198 223.951 387.052C215.275 386.426 206.69 384.918 198.117 383.475C198.205 384.167 198.292 384.86 198.382 385.573C199.102 391.288 199.812 397.004 200.509 402.722C200.994 406.687 201.5 410.644 202.081 414.595C203.52 424.873 203.835 435.167 203.937 445.534C203.954 447.132 203.978 448.729 204.008 450.327C204.237 463.471 202.953 474.835 193.529 484.658C190.76 487.046 188.674 487.937 185.067 488.517C184.378 488.643 183.69 488.768 182.981 488.898C170.831 490.122 159.357 480.087 150.359 472.797C146.11 469.232 142.248 465.335 138.434 461.304C135.359 458.165 134.04 456.327 131.777 455.692C129.514 455.056 124.631 457.916 121.241 461.163C119.809 462.502 119.809 462.502 118.348 463.868C116.542 465.6 114.742 467.34 112.953 469.091C103.342 478.239 90.4351 489.027 76.6775 488.735C71.6004 488.3 68.094 486.817 64.4766 483.17C56.4591 473.501 55.0687 464.206 55.173 451.862C55.1773 450.527 55.1816 449.192 55.186 447.816C55.4286 431.238 57.198 414.76 58.9412 398.285C59.0307 397.438 59.1203 396.591 59.2126 395.719C59.7014 391.243 60.3015 386.816 61.0865 382.381C59.1687 382.855 59.1687 382.855 57.2121 383.338C42.9379 386.504 20.6469 387.955 12.147 383.475C3.64707 378.995 9.80777 382.381 6.53852 380.455C3.26926 378.53 2.83283 376.658 2.35907 374.721C1.88532 372.785 2.35907 370.351 3.26926 367.298C4.17944 364.245 12.9301 357.069 19.1481 353.316C19.9938 352.8 20.8396 352.284 21.7111 351.752C28.5894 347.678 35.545 344.719 43.0868 342.135C47.0219 340.776 50.7578 339.209 54.5612 337.519C54.5188 335.504 54.5188 335.504 53.4737 333.142C51.2693 331.226 49.0967 329.519 46.7445 327.808C22.0433 308.967 5.0549 284.023 0.532336 252.544C-2.16915 224.204 5.4069 196.094 23.3639 173.805C31.4579 164.196 40.5414 154.774 51.2986 148.224C51.0196 146.85 50.7406 145.476 50.4532 144.061C48.8081 135.78 47.2899 127.476 45.7666 119.173C45.2489 116.354 44.7276 113.536 44.2062 110.718C43.8725 108.901 43.539 107.085 43.2057 105.268C43.0517 104.438 42.8976 103.608 42.7388 102.753C40.7479 91.8405 40.1606 81.1396 40.1513 70.0573C40.1505 69.2751 40.1498 68.4928 40.149 67.6868C40.1666 55.931 40.6043 44.7431 43.6858 33.3335C44.0433 31.9724 44.4008 30.6113 44.7691 29.2089C48.5331 16.9045 55.7045 8.35123 66.5242 1.60196C73.818 -0.84415 81.6492 -0.513902 88.615 2.76454Z" fill="#F8B5DE"/>
<path d="M108.975 222.572C108.975 228.022 104.584 232.439 99.1675 232.439C93.7508 232.439 89.3597 228.022 89.3597 222.572C89.3597 217.122 93.7508 212.704 99.1675 212.704C104.584 212.704 108.975 217.122 108.975 222.572Z" fill="black"/>
<path d="M172.181 222.572C172.181 228.022 167.79 232.439 162.373 232.439C156.956 232.439 152.565 228.022 152.565 222.572C152.565 217.122 156.956 212.704 162.373 212.704C167.79 212.704 172.181 217.122 172.181 222.572Z" fill="black"/>
<path d="M168.849 74.4663C167.691 89.6332 167.092 103.132 170.984 110.727C172.979 114.621 174.675 117.085 177.522 117.305C179.747 117.477 183.725 119.019 189.509 112.92C195.294 106.82 197.985 93.6828 199.272 76.8167C200.427 61.6889 199.919 47.0658 196.048 39.4599C194.048 35.5308 191.59 32.1984 186.24 31.7851C180.89 31.3718 179.015 33.6569 176.432 37.2671C171.47 44.2027 170 59.3777 168.849 74.4663Z" fill="#F6DAEB"/>
<path d="M93.674 73.3808C94.8315 88.5477 95.4304 102.046 91.5392 109.641C89.5443 113.535 87.8481 116 85.0007 116.22C82.7756 116.392 78.7975 117.933 73.0134 111.834C67.2293 105.735 64.5377 92.5973 63.2504 75.7312C62.0959 60.6034 62.6036 45.9803 66.4749 38.3744C68.4748 34.4453 70.9328 31.1129 76.2827 30.6996C81.6326 30.2863 83.5076 32.5714 86.0905 36.1816C91.0524 43.1172 92.5224 58.2922 93.674 73.3808Z" fill="#F6DAEB"/>
<path d="M156.924 390.323C156.924 410.911 144.727 427.601 129.681 427.601C114.634 427.601 102.437 410.911 102.437 390.323C102.437 369.735 114.634 353.045 129.681 353.045C144.727 353.045 156.924 369.735 156.924 390.323Z" fill="#F6DAEB"/>
<path d="M141.668 264.235C141.668 269.685 137.277 274.103 131.86 274.103C126.443 274.103 122.052 269.685 122.052 264.235C122.052 258.786 126.443 254.368 131.86 254.368C137.277 254.368 141.668 258.786 141.668 264.235Z" fill="black"/>
<path d="M136.159 272.285C136.16 272.287 136.161 272.292 136.162 272.296C136.163 272.303 136.165 272.315 136.168 272.33C136.173 272.36 136.179 272.407 136.189 272.465C136.209 272.582 136.239 272.752 136.274 272.96C136.346 273.377 136.446 273.943 136.555 274.538C136.666 275.137 136.781 275.747 136.89 276.26C136.944 276.516 136.992 276.731 137.032 276.898C137.06 277.014 137.079 277.078 137.085 277.101C137.592 278.629 138.087 281.077 139.846 283.731C140.352 284.494 141.14 285.089 142.102 285.528C143.069 285.969 143.989 286.148 144.388 286.198C146.277 286.435 147.862 286.222 149.015 285.887C150.304 285.513 150.737 285.091 150.573 285.256C151.573 284.25 152.257 283.556 153.025 282.009C153.428 281.198 153.531 280.796 153.579 280.508C153.644 280.112 153.655 279.671 153.655 278.489C153.655 276.067 155.607 274.103 158.014 274.103C160.422 274.103 162.373 276.067 162.373 278.489C162.373 279.499 162.384 280.704 162.177 281.951C161.953 283.308 161.51 284.551 160.824 285.932C159.413 288.772 157.917 290.27 156.737 291.457C155.483 292.719 153.519 293.708 151.431 294.314C149.207 294.959 146.433 295.294 143.307 294.901C141.512 294.675 135.863 293.533 132.592 288.596C132.331 288.202 132.089 287.803 131.86 287.408C131.631 287.803 131.389 288.202 131.128 288.596C127.857 293.533 122.208 294.675 120.413 294.901C117.287 295.294 114.513 294.959 112.289 294.314C110.201 293.708 108.237 292.719 106.983 291.457C105.803 290.27 104.307 288.772 102.896 285.932C102.21 284.551 101.768 283.308 101.543 281.951C101.336 280.704 101.347 279.499 101.347 278.489C101.347 276.067 103.299 274.103 105.706 274.103C108.113 274.103 110.065 276.067 110.065 278.489C110.065 279.671 110.076 280.112 110.142 280.508C110.189 280.796 110.292 281.198 110.695 282.009C111.464 283.556 112.147 284.25 113.147 285.256C112.983 285.091 113.416 285.513 114.705 285.887C115.858 286.222 117.443 286.435 119.332 286.198C119.731 286.148 120.651 285.969 121.618 285.528C122.58 285.089 123.369 284.494 123.874 283.731C125.633 281.077 126.129 278.629 126.635 277.101C126.641 277.078 126.66 277.014 126.688 276.898C126.728 276.731 126.777 276.516 126.831 276.26C126.939 275.747 127.054 275.137 127.165 274.538C127.274 273.943 127.374 273.377 127.446 272.96C127.481 272.752 127.511 272.582 127.531 272.465C127.541 272.407 127.547 272.36 127.552 272.33C127.555 272.315 127.557 272.303 127.559 272.296C127.559 272.292 127.56 272.289 127.561 272.287L136.159 272.285Z" fill="black"/>
</svg>
